<svg width="11" height="12" viewBox="0 0 11 12" fill="none" xmlns="http://www.w3.org/2000/svg">
<path d="M2.97662 0.196765C2.96317 0.197483 2.94971 0.198738 2.93644 0.200801C2.84129 0.211831 2.75359 0.257747 2.69045 0.329758C2.62732 0.401859 2.59333 0.494766 2.59494 0.590534V1.23335H1.56642C1.07453 1.23335 0.666504 1.64137 0.666504 2.13326V10.8755C0.666504 11.3674 1.07453 11.7754 1.56642 11.7754H6.32323C6.68617 11.7754 7.02298 11.6725 7.31955 11.5062C7.32322 11.5042 7.32807 11.5042 7.33165 11.5023C7.36869 11.4915 7.40384 11.4752 7.43613 11.454L10.5216 9.39697C10.6294 9.32558 10.6943 9.20488 10.6943 9.07556V2.13318C10.6943 1.64129 10.2863 1.23327 9.79444 1.23327H8.76591V0.590454C8.7678 0.479344 8.7217 0.372804 8.63938 0.298112C8.55696 0.223499 8.44648 0.187986 8.33608 0.200721C8.24094 0.211751 8.15323 0.257667 8.09009 0.329678C8.02705 0.401779 7.99297 0.494686 7.99459 0.590454V1.23327H3.36633V0.590454C3.36848 0.486068 3.32831 0.38527 3.25486 0.311106C3.18142 0.236852 3.08107 0.195601 2.97668 0.196676L2.97662 0.196765ZM1.56642 2.00468H2.59495V2.39039C2.59342 2.49361 2.63342 2.59315 2.70597 2.66668C2.77843 2.74022 2.87734 2.78156 2.98056 2.78156C3.08387 2.78156 3.18279 2.74022 3.25525 2.66668C3.3278 2.59315 3.36771 2.4936 3.36627 2.39039V2.00468H7.99452V2.39039C7.99309 2.49361 8.033 2.59315 8.10554 2.66668C8.178 2.74022 8.27692 2.78156 8.38023 2.78156C8.48345 2.78156 8.58237 2.74022 8.65483 2.66668C8.72738 2.59315 8.76737 2.4936 8.76585 2.39039V2.00468H9.79437C9.8723 2.00468 9.92297 2.05534 9.92297 2.13328V3.80461H1.43784V2.13328C1.43784 2.05535 1.48851 2.00468 1.56644 2.00468H1.56642ZM1.43782 4.57593H9.92295V8.43281H7.99451C7.89219 8.43289 7.79408 8.47352 7.7218 8.5458C7.64943 8.61817 7.60881 8.71628 7.60881 8.81851V9.71843C7.60881 10.4374 7.04212 11.0041 6.32318 11.0041H1.56637C1.48844 11.0041 1.43777 10.9534 1.43777 10.8755L1.43782 4.57593ZM8.3802 9.20418H9.42073L8.36011 9.9113C8.36621 9.84682 8.3802 9.78449 8.3802 9.7184V9.20418Z" fill="#0032A0"/>
</svg>
